<svg id="ePrCoV01XjU1" xmlns="http://www.w3.org/2000/svg" xmlns:xlink="http://www.w3.org/1999/xlink" viewBox="0 0 300 300" shape-rendering="geometricPrecision" text-rendering="geometricPrecision" project-id="ddcb256e11b64c058c04018621749e7f" export-id="b8b0af524e38474aa81e7db07ca1023b" cached="false"><g transform="translate(-10-12)"><g transform="translate(0 200)"><rect width="10" height="10" rx="0" ry="0" transform="translate(90 52)" fill="#ffdfc2"/><rect width="10" height="10" rx="0" ry="0" transform="translate(50 52)" fill="#ffdfc2" fill-opacity="0.5"/><rect width="10" height="10" rx="0" ry="0" transform="translate(250 52)" fill="#ffdfc2"/><rect width="10" height="10" rx="0" ry="0" transform="translate(210 52)" fill="#ffdfc2" fill-opacity="0.5"/><rect width="10" height="10" rx="0" ry="0" transform="translate(170 52)" fill="#ffdfc2"/><rect width="10" height="10" rx="0" ry="0" transform="translate(130 52)" fill="#ffdfc2" fill-opacity="0.5"/></g><g transform="translate(0 160)"><rect width="10" height="10" rx="0" ry="0" transform="translate(50 52)" fill="#ffdfc2"/><rect width="10" height="10" rx="0" ry="0" transform="translate(250 52)" fill="#ffdfc2" fill-opacity="0.5"/><rect width="10" height="10" rx="0" ry="0" transform="translate(210 52)" fill="#ffdfc2"/><rect width="10" height="10" rx="0" ry="0" transform="translate(170 52)" fill="#ffdfc2" fill-opacity="0.5"/><rect width="10" height="10" rx="0" ry="0" transform="translate(130 52)" fill="#ffdfc2"/><rect width="10" height="10" rx="0" ry="0" transform="translate(90 52)" fill="#ffdfc2" fill-opacity="0.5"/></g><g transform="translate(0 120)"><rect width="10" height="10" rx="0" ry="0" transform="translate(90 52)" fill="#ffdfc2"/><rect width="10" height="10" rx="0" ry="0" transform="translate(50 52)" fill="#ffdfc2" fill-opacity="0.5"/><rect width="10" height="10" rx="0" ry="0" transform="translate(250 52)" fill="#ffdfc2"/><rect width="10" height="10" rx="0" ry="0" transform="translate(210 52)" fill="#ffdfc2" fill-opacity="0.5"/><rect width="10" height="10" rx="0" ry="0" transform="translate(170 52)" fill="#ffdfc2"/><rect width="10" height="10" rx="0" ry="0" transform="translate(130 52)" fill="#ffdfc2" fill-opacity="0.5"/></g><g transform="translate(0 80)"><rect width="10" height="10" rx="0" ry="0" transform="translate(50 52)" fill="#ffdfc2"/><rect width="10" height="10" rx="0" ry="0" transform="translate(250 52)" fill="#ffdfc2" fill-opacity="0.5"/><rect width="10" height="10" rx="0" ry="0" transform="translate(210 52)" fill="#ffdfc2"/><rect width="10" height="10" rx="0" ry="0" transform="translate(170 52)" fill="#ffdfc2" fill-opacity="0.5"/><rect width="10" height="10" rx="0" ry="0" transform="translate(130 52)" fill="#ffdfc2"/><rect width="10" height="10" rx="0" ry="0" transform="translate(90 52)" fill="#ffdfc2" fill-opacity="0.5"/></g><g transform="translate(0 40)"><rect width="10" height="10" rx="0" ry="0" transform="translate(50 52)" fill="#ffdfc2" fill-opacity="0.5"/><rect width="10" height="10" rx="0" ry="0" transform="translate(250 52)" fill="#ffdfc2"/><rect width="10" height="10" rx="0" ry="0" transform="translate(210 52)" fill="#ffdfc2" fill-opacity="0.5"/><rect width="10" height="10" rx="0" ry="0" transform="translate(170 52)" fill="#ffdfc2"/><rect width="10" height="10" rx="0" ry="0" transform="translate(130 52)" fill="#ffdfc2" fill-opacity="0.5"/><rect width="10" height="10" rx="0" ry="0" transform="translate(90 52)" fill="#ffdfc2"/></g><g><rect width="10" height="10" rx="0" ry="0" transform="translate(250 52)" fill="#ffdfc2" fill-opacity="0.5"/><rect width="10" height="10" rx="0" ry="0" transform="translate(210 52)" fill="#ffdfc2"/><rect width="10" height="10" rx="0" ry="0" transform="translate(170 52)" fill="#ffdfc2" fill-opacity="0.5"/><rect width="10" height="10" rx="0" ry="0" transform="translate(130 52)" fill="#ffdfc2"/><rect width="10" height="10" rx="0" ry="0" transform="translate(90 52)" fill="#ffdfc2" fill-opacity="0.5"/><rect width="10" height="10" rx="0" ry="0" transform="translate(50 52)" fill="#ffdfc2"/></g></g></svg>
