<?xml version="1.0" standalone="no"?>
<!DOCTYPE svg PUBLIC "-//W3C//DTD SVG 20010904//EN"
 "http://www.w3.org/TR/2001/REC-SVG-20010904/DTD/svg10.dtd">
<svg version="1.0" xmlns="http://www.w3.org/2000/svg"
 width="100.000000pt" height="100.000000pt" viewBox="0 0 100.000000 100.000000"
 preserveAspectRatio="xMidYMid meet">

<g transform="translate(0.000000,100.000000) scale(0.100000,-0.100000)"
fill="#FFAB5C" stroke="none">
<path d="M386 944 c-225 -54 -376 -286 -338 -517 62 -367 512 -513 773 -252
329 330 18 879 -435 769z m219 -39 c312 -81 418 -473 191 -701 -241 -240 -651
-107 -709 230 -50 295 226 546 518 471z"/>
<path d="M310 639 c-96 -44 -179 -84 -185 -90 -7 -7 0 -19 23 -37 29 -24 32
-32 32 -80 0 -29 -5 -61 -12 -72 -10 -15 -9 -26 5 -54 9 -20 21 -36 27 -36 6
0 18 16 27 36 14 28 15 39 5 54 -15 24 -16 104 -2 95 6 -3 10 5 10 19 0 40 10
56 54 79 38 20 55 22 206 22 152 0 168 -2 207 -23 40 -21 46 -30 55 -85 3 -14
12 -11 61 24 32 23 56 46 54 53 -4 12 -362 177 -381 175 -6 0 -90 -36 -186
-80z"/>
<path d="M346 529 c-53 -13 -66 -25 -66 -64 l0 -32 63 13 c80 17 234 17 315 0
l63 -13 -3 36 c-5 54 -35 65 -198 68 -74 1 -153 -2 -174 -8z"/>
<path d="M370 414 c-163 -32 -93 -69 130 -69 187 0 270 25 188 55 -33 12 -272
23 -318 14z"/>
</g>
</svg>
