<svg id="etR7KP5lqkn1" xmlns="http://www.w3.org/2000/svg" xmlns:xlink="http://www.w3.org/1999/xlink" viewBox="0 0 300 300" shape-rendering="geometricPrecision" text-rendering="geometricPrecision" project-id="ddcb256e11b64c058c04018621749e7f" export-id="4ea305ff85a6426e95f69587b9c23dbe" cached="false"><g transform="translate(23.433468 36.725231)"><path d="M12.79,40c7.44,0,7.44,20,14.88,20s7.44-20,14.88-20s7.45,20,14.88,20s7.44-20,14.89-20s7.44,20,14.89,20" transform="matrix(1.814887 1.397637-.610141 0.792293 54.741245-.18319)" fill="none" stroke="#ffdfc2" stroke-width="6" stroke-linecap="round" stroke-linejoin="round"/><path d="M12.79,40c7.44,0,7.44,20,14.88,20s7.44-20,14.88-20s7.45,20,14.88,20s7.44-20,14.89-20s7.44,20,14.89,20" transform="matrix(1.814887 1.397637-.610141 0.792293 77.917211 7.739736)" fill="none" stroke="#ffdfc2" stroke-width="6" stroke-opacity="0.5" stroke-linecap="round" stroke-linejoin="round"/></g></svg>
