<svg id="epbCdhJfLIP1" xmlns="http://www.w3.org/2000/svg" xmlns:xlink="http://www.w3.org/1999/xlink" viewBox="0 0 256 256" shape-rendering="geometricPrecision" text-rendering="geometricPrecision" project-id="7680b75a153f4523b8e7b7bdbb342eb2" export-id="495e7e067f4d4f9684e65fb19b9a8faf" cached="false"><g><g transform="matrix(1.8 0 0 1.8 12.8 12.8)"><path d="M64,117c-29.2,0-53-23.8-53-53s23.8-53,53-53s53,23.8,53,53-23.8,53-53,53ZM64,17C38.1,17,17,38.1,17,64s21.1,47,47,47s47-21.1,47-47-21.1-47-47-47Z" transform="matrix(1.238673 0 0 1.240965-15.275072-15.42176)" fill="#610f7f" fill-opacity="0.5" stroke-miterlimit="10"/><path d="M64,117c-29.2,0-53-23.8-53-53s23.8-53,53-53s53,23.8,53,53-23.8,53-53,53ZM64,17C38.1,17,17,38.1,17,64s21.1,47,47,47s47-21.1,47-47-21.1-47-47-47Z" fill="#610f7f" stroke-miterlimit="10"/><path d="M64,14C36.38576,14,14,36.38576,14,64s22.38576,50,50,50s50-22.38576,50-50-22.38576-50-50-50Z" fill="none" stroke-miterlimit="10"/><path d="M86.5,52h-45c-1.7,0-3-1.3-3-3s1.3-3,3-3h45c1.7,0,3,1.3,3,3s-1.3,3-3,3Zm0,15h-45c-1.7,0-3-1.3-3-3s1.3-3,3-3h45c1.7,0,3,1.3,3,3s-1.3,3-3,3Z" fill="#610f7f" stroke-miterlimit="10"/><g><path d="M86.5,82h-45c-1.7,0-3-1.3-3-3s1.3-3,3-3h45c1.7,0,3,1.3,3,3s-1.3,3-3,3Z" fill="#610f7f" stroke-miterlimit="10"/></g></g></g></svg>
