<?xml version="1.0" standalone="no"?>
<!DOCTYPE svg PUBLIC "-//W3C//DTD SVG 20010904//EN"
 "http://www.w3.org/TR/2001/REC-SVG-20010904/DTD/svg10.dtd">
<svg version="1.0" xmlns="http://www.w3.org/2000/svg"
 width="100.000000pt" height="100.000000pt" viewBox="0 0 100.000000 100.000000"
 preserveAspectRatio="xMidYMid meet">

 <!-- Add a background rectangle -->
 <rect width="90%" height="90%" fill="#F0F0F0" />

<g transform="translate(0.000000,100.000000) scale(0.100000,-0.100000)"
fill="#000000" stroke="none">
<path d="M175 906 c-41 -18 -83 -69 -90 -109 -3 -18 -5 -163 -3 -324 3 -276 4
-293 24 -319 11 -15 33 -37 48 -48 26 -20 40 -21 345 -21 l318 0 35 27 c68 52
69 61 66 402 -3 290 -4 306 -24 332 -11 15 -33 37 -48 48 -26 20 -42 21 -334
23 -240 2 -314 0 -337 -11z m667 -64 l33 -32 0 -310 0 -310 -33 -32 -32 -33
-310 0 -310 0 -32 33 -33 32 0 309 0 309 25 27 c14 15 34 31 45 36 11 4 154 7
317 6 l298 -2 32 -33z"/>
</g>
</svg>
