<?xml version="1.0" encoding="UTF-8"?><svg id="Layer_0_Image" fill="#FFEAD6" data-name="Layer 0 Image" xmlns="http://www.w3.org/2000/svg" viewBox="0 0 800 600" x="0px" y="0px" width="800px" height="600px" version="1.1" xmlns:xlink="http://www.w3.org/1999/xlink"><title>1</title><path d="M251.486,371.079c-12.2,13.26-24.456,26.465-36.575,39.8q-21.558,23.714-42.889,47.633a31.465,31.465,0,0,0-5.048,7.408c-4.9,10.424-14.3,9.458-23.157,9.046-5.193-.241-8.322-8.317-4.931-13.051,9.351-13.058,18.446-26.4,28.883-38.56,32.378-37.734,65.34-74.966,98.048-112.417,2.805-3.213,5.254-6.744,8.141-9.876,2.965-3.217,5.434-8.915,10.8-1.833,1.449,1.912,6.134,1.023,8.831,2.4,9.391,4.806,11.409,8.6,8.431,18.552-3.968,13.272-8.805,26.287-13.354,39.383-3.32,9.557-6.572,19.146-10.227,28.576-4.621,11.924-10.047,23.551-14.3,35.6-2.506,7.1-3.407,14.777-5.03,22.194l1.786,1.878c.541-1.487.752-3.23,1.674-4.421,11.944-15.43,24.056-30.73,35.988-46.169,10.91-14.117,20.927-29,32.618-42.422,25.28-29.036,50.39-58.331,77.358-85.762C460.4,216.28,513.608,164.847,566.057,112.665c27.516-27.377,54.6-55.185,81.912-82.77,1.316-1.329,2.917-2.377,5.344-4.326-.166,3.205-.264,5.085-.361,6.961.464.273,1.1.822,1.255.71,3.452-2.557,6.953-.713,7.764,1.957.951,3.129.737,7.8-1.048,10.354a305.672,305.672,0,0,1-19.106,23.932c-5.832,6.772-11.935,13.342-18.278,19.638-16.126,16.011-30.6,33.605-47.485,48.911-4.621,4.189-7.772,9.995-11.622,15.039a38.677,38.677,0,0,1-3.348,4.055q-40.516,40.226-81.112,80.374c-12.282,12.088-24.994,23.737-37.3,35.8-8.545,8.373-16.526,17.328-25.2,25.553-2.6,2.468-3.979,8.978-10.164,5.171a8.5,8.5,0,0,0-2.2,2.676,109.459,109.459,0,0,0-4.7,10.633c-2.519,7.1-8.631,10.446-14.053,14.8-4.391,3.523-7.479,8.623-11.441,12.738-4.014,4.169-10.848,7.382-12.012,12.106-1.588,6.447-7.029,8.393-9.8,13.073-5.262,8.9-11.119,17.481-17.242,25.819-8.057,10.97-15.14,23.367-25.4,31.788-8.614,7.069-12.685,16.6-19.564,24.4-9.084,10.3-16.57,22.084-24.11,33.643-5.512,8.448-8.473,19.146-15.438,25.875-5.509,5.323-6.274,12.239-10.546,17.116-8.781,10.024-13.623,22.141-19.347,33.661-4.465,8.988-10.546,12.862-19.7,11.323-3.491-.586-8.779,4.249-11.213-4.891-1.737-6.52-5.253-5.646-2.832-12.5q31.863-90.115,63.784-180.209c.48-1.356.834-2.757,1.247-4.137ZM400.54,287.268l31.949-30.795-1.713-1.713c-3.969,3.769-7.99,7.485-11.893,11.321-4.1,4.032-8.273,8.018-12.064,12.332-2.377,2.706-4.109,5.979-6.13,9l-19.6,21.134c-2.158,1.523-4.684,2.711-6.417,4.62-12.985,14.306-26.093,28.516-38.612,43.224-12.4,14.567-24.386,29.5-36.1,44.631-5.775,7.461-10.517,15.722-15.726,23.622L286,425.829c9.371-12.517,18.277-25.417,28.213-37.467,18.535-22.477,37.7-44.431,56.523-66.674,3.6-4.259,6.818-8.846,10.212-13.282ZM590.926,94.961q.886.865,1.772,1.732l30.828-30.058-1.983-2.012ZM262.24,459.1l-1.977-1.6-12.171,18.88,1.469.949Z"/><path d="M550.987,34.094c.913,1.911,1.2,3.889,2.3,4.594,6.545,4.189,6.83,6.687.439,11.821C540.043,61.5,525.976,72.036,512.523,83.3q-33.048,27.678-65.439,56.134c-12.65,11.185-25.036,22.773-36.578,35.082-16.923,18.047-33.125,36.777-49.36,55.455-11.012,12.67-21.606,25.707-32.277,38.671-3.656,4.442-8.307,2.469-10.53.007-2-2.21-2.856-7.907-1.382-10.366,6.823-11.38,14.322-22.394,22.142-33.13,53.836-73.919,123.438-130.79,197.843-182.42C541.432,39.621,546.257,36.988,550.987,34.094Z"/></svg>