<svg id="euxDpGa0lfo1" xmlns="http://www.w3.org/2000/svg" xmlns:xlink="http://www.w3.org/1999/xlink" viewBox="0 0 300 300" shape-rendering="geometricPrecision" text-rendering="geometricPrecision" project-id="bc699c515ff249a7ab123d51cddf3b89" export-id="45e3165cede947428e8ac14f8c847127" cached="false"><g transform="matrix(.75 0 0 0.752822-.202509-11.131385)"><g><g><path d="M219.37,286.8v-32.8h37.57c9.388841,0,17,7.611159,17,17s-7.611159,17-17,17h-37.57v-1.2" fill="#610f7f"/><path d="M181.09,286.8v-32.8h-37.58c-9.388841,0-17,7.611159-17,17s7.611159,17,17,17h37.57v-1.2" fill="#610f7f"/></g><path d="M303.21,363v-25.2c-.087874-30.201116-24.548884-54.662126-54.75-54.75h-3.46c-10.816629-.032944-19.577056-8.793371-19.61-19.61v-19.71h-50.33v19.74c-.032944,10.816629-8.793371,19.577056-19.61,19.61h-3.45c-30.201116.087874-54.662126,24.548884-54.75,54.75v25.17c0,2.185384.86814,4.28126,2.41344,5.82656s3.641176,2.41344,5.82656,2.41344h189.51c4.539106-.016526,8.21003-3.700864,8.21-8.24Z" fill="#ffc57d"/><path d="M199.85,282.58h.75c10.097136.011202,20.047003-2.421369,29-7.09-2.692579-3.421262-4.160771-7.646274-4.17-12v-19.76h-50.37v19.74c-.009229,4.353726-1.477421,8.578738-4.17,12c8.938971,4.670052,18.874635,7.109367,28.96,7.11Z" fill="#f7af55"/><g><path d="M169.42,375h61.16v-77.09c-19.019364,10.559308-42.140636,10.559308-61.16,0Z" fill="#ffead6"/><path d="M169.42,310.87c19.019364,10.559308,42.140636,10.559308,61.16,0" fill="none" stroke="#f5f5f5" stroke-width="8.24112" stroke-linecap="round" stroke-miterlimit="10"/><path d="M105.49,375.27c-3.250637-.002649-6.366937-1.297187-8.66267-3.598547s-3.582638-5.420819-3.57733-8.671453v-25.2c.090639-26.44996,17.79624-49.598091,43.3-56.61.345476-.093892.701994-.14098,1.06-.14h26c10.267927.011023,18.588977,8.332073,18.6,18.6v71.25c.015577.229736.015577.460264,0,.69-.177034,2.075374-1.917103,3.667537-4,3.66Z" fill="#2f0147"/><path d="M222.33,375.27c-2.082897.007537-3.822966-1.584626-4-3.66-.015607-.229735-.015607-.460265,0-.69v-71.25c.011023-10.267927,8.332073-18.588977,18.6-18.6h26c.358006-.00098.714524.046108,1.06.14c25.50376,7.011909,43.209361,30.16004,43.3,56.61v25.18c.005339,3.259309-1.288424,6.386369-3.594982,8.689174s-5.435722,3.591473-8.695018,3.580826Z" fill="#2f0147"/><line x1="142.39" y1="343.8" x2="142.39" y2="362.86" fill="none" stroke="#f9edfd" stroke-width="8" stroke-linecap="round" stroke-miterlimit="10"/><line x1="258.07" y1="343.8" x2="258.07" y2="362.86" fill="none" stroke="#f9edfd" stroke-width="8" stroke-linecap="round" stroke-miterlimit="10"/><path d="M254.17,266.24c-.743634,4.862876-4.961114,8.431513-9.88,8.36h-4.37c-12.532075.005295-22.708515,10.128128-22.78,22.66v77.44c0,2.761424,2.238576,5,5,5h.52c2.761424,0,5-2.238576,5-5v-76.11c.033005-5.819728,4.760179-10.520094,10.58-10.52h18.71c9.361572.000079,16.961452-7.568508,17-16.93l-20.47-9.9c.675201,1.574361.913561,3.30161.69,5Z" fill="#610f7f"/><path d="M174,279c-3.903001-2.873557-8.623275-4.422452-13.47-4.42h-4.37c-4.918886.071513-9.136366-3.497124-9.88-8.36-.226706-1.697491.008195-3.424707.68-5l-20.47,9.9c.038548,9.361492,7.638428,16.930079,17,16.93h18.71c5.819821-.000094,10.546995,4.700272,10.58,10.52v76.13c0,2.761424,2.238576,5,5,5h.52c2.761424,0,5-2.238576,5-5v-77.44c-.008739-7.221936-3.463923-14.005985-9.3-18.26Z" fill="#610f7f"/><path d="M160.54,274.66h-4.67c-5.328233-.016471-9.643529-4.331767-9.66-9.66v0c-.001408-1.288388.25708-2.563822.76-3.75" fill="none" stroke="#f9edfd" stroke-width="4" stroke-linecap="round" stroke-miterlimit="10"/><line x1="157.05" y1="285.85" x2="157.05" y2="332.55" fill="none" stroke="#fff" stroke-width="8" stroke-linecap="round" stroke-miterlimit="10"/><circle r="7.69" transform="translate(156.82 339.75)" fill="#5c3ab5"/><line x1="243.41" y1="285.85" x2="243.41" y2="332.55" fill="none" stroke="#fff" stroke-width="8" stroke-linecap="round" stroke-miterlimit="10"/><circle r="7.69" transform="translate(243.41 339.98)" fill="#5c3ab5"/><path d="M239.92,274.66h4.67c5.328233-.016471,9.643529-4.331767,9.66-9.66v0c.001408-1.288388-.25708-2.563822-.76-3.75" fill="none" stroke="#f9edfd" stroke-width="4" stroke-linecap="round" stroke-miterlimit="10"/></g></g><g><g><path d="M276.38,178v-43.23c-.071297-30.467898-24.732217-55.160091-55.2-55.27h-42.36c-30.467783.109909-55.128703,24.802102-55.2,55.27v43.23" fill="none" stroke="#333" stroke-width="14" stroke-miterlimit="10"/><rect width="55.22" height="61.05" rx="16.38" ry="16.38" transform="translate(101.28 154.48)" fill="#1b1b1b"/><line x1="118.15" y1="173.26" x2="118.15" y2="196.81" fill="none" stroke="#858585" stroke-width="16" stroke-linecap="round" stroke-miterlimit="10"/><rect width="55.22" height="61.05" rx="16.38" ry="16.38" transform="matrix(-1 0 0-1 298.72 215.53)" fill="#1b1b1b"/><line x1="281.85" y1="173.26" x2="281.85" y2="196.81" fill="none" stroke="#858585" stroke-width="16" stroke-linecap="round" stroke-miterlimit="10"/></g><path d="M189,82.68h22c29.005995,0,52.52,23.514005,52.52,52.52v56.07c.002654,14.783061-5.869403,28.961263-16.323544,39.413528s-24.633395,16.321778-39.416456,16.316472h-15.56c-30.773306,0-55.72-24.946694-55.72-55.72v-56.08c-.000002-28.998186,23.501816-52.508957,52.5-52.52Z" fill="#ffc57d"/><path d="M206.78,184.3c-1.419143-2.363024-3.954822-3.829029-6.710774-3.879839s-5.343945,1.320732-6.849226,3.629839" fill="none" stroke="#eb952a" stroke-width="4" stroke-linecap="round" stroke-miterlimit="10"/><path d="M184,205.46v.29c0,7.29,5.79,13.82,13.84,14.78c9.74,1.16,18.14-5.7,18.14-14.24v-.83c-.129057-2.260745-2.058426-3.993604-4.32-3.88h-23.33c-2.265381-.1193-4.200992,1.615151-4.33,3.88Z" fill="#fff"/><g><ellipse rx="6.88" ry="7.43" transform="translate(168.5 165.61)"/><ellipse rx="6.88" ry="7.43" transform="translate(231.5 165.61)"/></g><g><line x1="219.84" y1="140.85" x2="243.17" y2="140.85" fill="none" stroke="#201109" stroke-width="12" stroke-linecap="round" stroke-miterlimit="10"/><line x1="157.83" y1="140.85" x2="181.16" y2="140.85" fill="none" stroke="#201109" stroke-width="12" stroke-linecap="round" stroke-miterlimit="10"/></g><g><path d="M252.7,95.69l7.39-7.39c6.543084-6.580317,6.543084-17.209683,0-23.79v0c-4.481812-4.455432-11.078886-6.030392-17.09-4.08.61608-10.43974-5.29002-20.172071-14.834897-24.445598s-20.73812-2.197083-28.115103,5.215598l-7.24,7.24c-7.23345-1.863623-14.913652.222686-20.21,5.49L146.17,80.36c-6.143525,6.18489-7.877026,15.49899-4.37,23.48-6.074074,10.817658-9.243601,23.023784-9.2,35.43v39.34c.010957,2.591186,2.108814,4.689043,4.7,4.7v0c2.591186-.010957,4.689043-2.108814,4.7-4.7v-.85v0-29c0,0,0,0,0,0v-10.5c0-4.8,3.41-8.73,7.95-8.73v-15.53c5-5.4,12-10.68,19.8-10.68h60.38c7.8,0,14.76,5.28,19.8,10.68v15.53c4.680003.152358,8.362268,4.048864,8.25,8.73v10.93c0,.13,0,.26,0,.4v29.14c0,2.529464,2.050536,4.58,4.58,4.58s4.58-2.050536,4.58-4.58v-39.46c.079961-15.746954-5.069264-31.075043-14.64-43.58Z" fill="#2e190d"/><line x1="184.59" y1="76.41" x2="215.32" y2="45.68" fill="none" stroke="#000" stroke-width="6" stroke-opacity="0.3" stroke-linecap="round" stroke-miterlimit="10"/><line x1="202.19" y1="93.97" x2="211.86" y2="84.29" fill="none" stroke="#000" stroke-width="6" stroke-opacity="0.3" stroke-linecap="round" stroke-miterlimit="10"/></g><g><path d="M186.24,237.64h-45.24c-8.836556,0-16-7.163444-16-16v-6.14" fill="none" stroke="#333" stroke-width="12" stroke-miterlimit="10"/><rect width="21.73" height="29.46" rx="7.14" ry="7.14" transform="matrix(0 1-1 0 202.03 226.78)" fill="#141414"/></g></g></g><circle r="97.193934" transform="matrix(1.495633 0 0 1.438345 150 150)" fill="none" stroke="#ffdfc2" stroke-width="7" stroke-linecap="round" stroke-linejoin="round"/></svg>
