<?xml version="1.0" standalone="no"?>
<!DOCTYPE svg PUBLIC "-//W3C//DTD SVG 20010904//EN"
 "http://www.w3.org/TR/2001/REC-SVG-20010904/DTD/svg10.dtd">
<svg version="1.0" xmlns="http://www.w3.org/2000/svg"
 width="48.000000pt" height="48.000000pt" viewBox="0 0 48.000000 48.000000"
 preserveAspectRatio="xMidYMid meet">

<g transform="translate(0.000000,48.000000) scale(0.100000,-0.100000)"
fill="#000000" stroke="none">
<path d="M155 381 c-46 -21 -99 -70 -121 -112 -13 -26 -13 -32 0 -58 39 -74
127 -131 206 -131 79 0 167 57 206 131 13 26 13 32 0 58 -56 107 -189 159
-291 112z m161 -40 c41 -19 94 -76 94 -101 0 -25 -53 -82 -94 -101 -54 -24
-100 -24 -153 2 -43 21 -93 74 -93 99 0 25 49 77 92 99 53 26 100 26 154 2z"/>
<path d="M185 295 c-50 -49 -15 -135 55 -135 19 0 40 9 55 25 50 49 15 135
-55 135 -19 0 -40 -9 -55 -25z m85 -30 c26 -32 -13 -81 -47 -59 -23 14 -28 41
-13 59 16 19 44 19 60 0z"/>
</g>
</svg>
