<svg version="1.1" id="Layer_1" xmlns="http://www.w3.org/2000/svg" xmlns:xlink="http://www.w3.org/1999/xlink" x="0px" y="0px"
	 width="100%" viewBox="0 0 60 60" enable-background="new 0 0 60 60" xml:space="preserve">
<path fill="#000000" opacity="1.000000" stroke="none" 
	d="
M42.001724,61.000000 
	C28.001308,61.000000 14.501357,61.000000 1.001055,61.000000 
	C1.000703,41.000542 1.000703,21.001083 1.000352,1.001218 
	C20.999386,1.000812 40.998772,1.000812 60.998619,1.000406 
	C60.999077,20.999313 60.999077,40.998627 60.999538,60.998970 
	C54.834064,61.000000 48.668129,61.000000 42.001724,61.000000 
M20.484056,49.010635 
	C23.787378,45.362717 27.090700,41.714794 30.590864,37.849499 
	C35.602341,42.945374 39.678940,46.883759 43.506348,51.051014 
	C46.329998,54.125393 48.413399,53.197018 50.943798,50.649391 
	C53.422215,48.154099 53.892353,46.121025 51.097832,43.578899 
	C46.810978,39.679234 42.674938,35.613781 37.939690,31.109598 
	C42.732723,26.471447 46.824215,22.363710 51.086071,18.441071 
	C53.851189,15.896044 53.453617,13.871325 50.958981,11.367074 
	C48.439510,8.837894 46.345390,7.828613 43.526993,10.937614 
	C39.639248,15.226229 35.534779,19.318378 30.974222,24.066130 
	C26.389904,19.276308 22.308836,15.151219 18.394707,10.873388 
	C15.827194,8.067302 13.802306,8.631461 11.322580,11.082742 
	C8.743793,13.631948 7.913831,15.734387 10.977723,18.519688 
	C15.256670,22.409557 19.329586,26.526070 23.888229,30.929647 
	C20.089769,34.608299 16.845209,37.687687 13.671200,40.838158 
	C7.964580,46.502460 8.659260,49.590462 17.034716,53.198910 
	C17.897562,52.123032 18.941038,50.821922 20.484056,49.010635 
z"/>
<path fill="#E07A5F" opacity="1.000000" stroke="none" 
	d="
M20.234287,49.265724 
	C18.941038,50.821922 17.897562,52.123032 17.034716,53.198910 
	C8.659260,49.590462 7.964580,46.502460 13.671200,40.838158 
	C16.845209,37.687687 20.089769,34.608299 23.888229,30.929647 
	C19.329586,26.526070 15.256670,22.409557 10.977723,18.519688 
	C7.913831,15.734387 8.743793,13.631948 11.322580,11.082742 
	C13.802306,8.631461 15.827194,8.067302 18.394707,10.873388 
	C22.308836,15.151219 26.389904,19.276308 30.974222,24.066130 
	C35.534779,19.318378 39.639248,15.226229 43.526993,10.937614 
	C46.345390,7.828613 48.439510,8.837894 50.958981,11.367074 
	C53.453617,13.871325 53.851189,15.896044 51.086071,18.441071 
	C46.824215,22.363710 42.732723,26.471447 37.939690,31.109598 
	C42.674938,35.613781 46.810978,39.679234 51.097832,43.578899 
	C53.892353,46.121025 53.422215,48.154099 50.943798,50.649391 
	C48.413399,53.197018 46.329998,54.125393 43.506348,51.051014 
	C39.678940,46.883759 35.602341,42.945374 30.590864,37.849499 
	C27.090700,41.714794 23.787378,45.362717 20.234287,49.265724 
z"/>
</svg>